<svg id="Capa_1" enable-background="new 0 0 511.992 511.992" height="512" viewBox="0 0 511.992 511.992" width="512" xmlns="http://www.w3.org/2000/svg"><g><path d="m257.354 468.952c96.733 0 175.431-78.698 175.431-175.431s-78.698-175.431-175.431-175.431-175.431 78.699-175.431 175.431 78.698 175.431 175.431 175.431zm-7.5-335.681v31.278c0 4.142 3.358 7.5 7.5 7.5s7.5-3.358 7.5-7.5v-31.278c82.507 3.816 148.934 70.244 152.75 152.75h-31.278c-4.142 0-7.5 3.358-7.5 7.5s3.358 7.5 7.5 7.5h31.278c-3.816 82.507-70.244 148.933-152.75 152.75v-31.278c0-4.142-3.358-7.5-7.5-7.5s-7.5 3.358-7.5 7.5v31.278c-82.507-3.816-148.934-70.243-152.75-152.75h31.278c4.142 0 7.5-3.358 7.5-7.5s-3.358-7.5-7.5-7.5h-31.278c3.816-82.506 70.244-148.933 152.75-152.75z"/><path d="m486.841 129.172c-3.928-1.315-8.178.8-9.495 4.728-2.242 6.688-5.929 12.63-10.958 17.66l-7.639 7.639-64.303-64.303 7.639-7.639c8.588-8.588 20.006-13.317 32.152-13.317s23.563 4.729 32.151 13.318c4.892 4.892 8.518 10.655 10.777 17.129 1.365 3.91 5.641 5.975 9.553 4.609 3.911-1.365 5.975-5.642 4.609-9.553-3.009-8.622-7.832-16.291-14.333-22.792-11.421-11.421-26.606-17.711-42.758-17.711s-31.337 6.29-42.758 17.711l-8.647 8.647c-2.564 2.563-3.976 5.972-3.976 9.599 0 3.626 1.412 7.035 3.975 9.597l17.837 17.837-8.789 8.789c-29.478-24.459-65.775-41.056-105.769-46.498v-18.509h8.948c18.228 0 33.057-14.829 33.057-33.057s-14.829-33.056-33.057-33.056h-75.405c-18.228 0-33.057 14.829-33.057 33.057s14.829 33.057 33.057 33.057h8.948v18.521c-39.822 5.455-76.14 22.06-105.682 46.571l-8.876-8.876 17.837-17.837c5.292-5.292 5.292-13.903 0-19.195l-8.648-8.648c-23.577-23.577-61.94-23.577-85.516 0-23.577 23.577-23.577 61.939 0 85.516l8.648 8.648c5.292 5.292 13.903 5.292 19.195 0l17.838-17.838 9.165 9.165c-28.81 36.062-46.062 81.742-46.062 131.381 0 24.115 4.039 47.768 12.005 70.301 1.381 3.906 5.667 5.95 9.571 4.571 3.905-1.381 5.952-5.666 4.571-9.571-7.398-20.924-11.148-42.894-11.148-65.301 0-110.931 92.742-200.701 204.837-195.637 104.51 4.707 186.876 90.949 186.875 195.637 0 107.995-87.861 195.856-195.856 195.856-70.269 0-135.93-37.985-170.798-99.929-2.031-3.609-6.606-4.888-10.214-2.856-3.61 2.032-4.889 6.605-2.857 10.215 8.224 14.609 18.054 27.999 29.194 39.999l-13.061 28.009c-7.746 16.612-.573 36.325 16.041 44.072 16.572 7.728 36.343.531 44.071-16.041l6.657-14.276c30.488 16.641 65.103 25.807 100.967 25.807 36.557 0 70.968-9.357 100.973-25.794l6.651 14.263c7.731 16.577 27.503 23.766 44.072 16.041 16.612-7.746 23.788-27.458 16.041-44.071l-13.106-28.106c34.872-37.631 56.226-87.959 56.226-143.188 0-49.577-17.167-95.328-45.985-131.458l9.088-9.088 17.837 17.837c2.563 2.564 5.972 3.976 9.599 3.976 3.626 0 7.035-1.412 9.597-3.975l8.648-8.648c6.685-6.685 11.589-14.591 14.575-23.499 1.315-3.929-.802-8.18-4.729-9.496zm-350.705 357.334c-4.233 9.077-15.06 13.02-24.137 8.786-9.097-4.242-13.03-15.038-8.786-24.138l10.751-23.056c9.127 8.47 18.978 16.119 29.429 22.845zm266.574 8.786c-9.078 4.23-19.905.292-24.138-8.785l-7.257-15.563c10.451-6.727 20.302-14.375 29.429-22.845l10.751 23.057c4.244 9.095.314 19.893-8.785 24.136zm-201.115-462.235c0-9.957 8.1-18.057 18.057-18.057h75.405c9.957 0 18.057 8.1 18.057 18.057s-8.1 18.057-18.057 18.057c-14.907 0-58.031 0-75.405 0-9.957-.001-18.057-8.101-18.057-18.057zm42.005 50.055v-16.999h27.51v16.999c-9.574-.621-18.745-.565-27.51 0zm-187.64 76.086-7.639-7.639c-17.728-17.728-17.728-46.575 0-64.303 17.727-17.727 46.575-17.728 64.303 0l7.639 7.639c-6.719 6.719-57.378 57.378-64.303 64.303zm47.475-26.262 8.202 8.203c-3.213 3.074-6.335 6.253-9.347 9.519l-8.288-8.288zm308.997 17.708c-3.013-3.272-6.124-6.452-9.337-9.528l8.178-8.179 9.433 9.433z"/><path d="m258.114 327.835c16.037 0 29.919-11.682 33.448-26.822h26.118c4.142 0 7.5-3.358 7.5-7.5s-3.358-7.5-7.5-7.5h-26.118c-2.964-12.716-13.232-22.984-25.948-25.948v-57.392c0-4.142-3.358-7.5-7.5-7.5s-7.5 3.358-7.5 7.5v57.392c-15.14 3.529-26.822 17.411-26.822 33.448-.001 18.605 15.717 34.322 34.322 34.322zm0-53.644c10.474 0 19.322 8.848 19.322 19.322s-8.848 19.322-19.322 19.322-19.322-8.849-19.322-19.322 8.848-19.322 19.322-19.322z"/></g></svg>