<?xml version="1.0" encoding="iso-8859-1"?>
<!-- Generator: Adobe Illustrator 17.1.0, SVG Export Plug-In . SVG Version: 6.00 Build 0)  -->
<!DOCTYPE svg PUBLIC "-//W3C//DTD SVG 1.1//EN" "http://www.w3.org/Graphics/SVG/1.1/DTD/svg11.dtd">
<svg version="1.1" id="Capa_1" xmlns="http://www.w3.org/2000/svg" xmlns:xlink="http://www.w3.org/1999/xlink" x="0px" y="0px"
	 viewBox="0 0 465.014 465.014" style="enable-background:new 0 0 465.014 465.014;" xml:space="preserve">
<g>
	<path d="M448.655,93.947c-24.679-29.688-134.47-51.872-216.148-51.872S41.038,64.259,16.359,93.947
		c-18.181,21.872-16.356,70.884-16.27,72.959c0.153,3.675,2.949,6.697,6.601,7.134c1.062,0.127,26.302,3.115,53.155,3.115
		s52.093-2.988,53.155-3.115c3.77-0.452,6.607-3.65,6.607-7.447v-34.187h28.38v14.943L37.31,349.604l0,0
		c-0.141,0.257-0.264,0.525-0.374,0.799c-0.023,0.058-0.042,0.117-0.064,0.176c-0.079,0.212-0.15,0.428-0.21,0.649
		c-0.021,0.078-0.042,0.156-0.06,0.235c-0.05,0.211-0.09,0.426-0.122,0.644c-0.011,0.075-0.026,0.15-0.034,0.226
		c-0.033,0.286-0.055,0.576-0.055,0.872v54.734h-2.074c-4.142,0-7.5,3.358-7.5,7.5s3.358,7.5,7.5,7.5h396.383
		c4.142,0,7.5-3.358,7.5-7.5s-3.358-7.5-7.5-7.5h-2.074v-54.734c0-0.295-0.022-0.585-0.055-0.872
		c-0.009-0.076-0.023-0.151-0.034-0.226c-0.032-0.218-0.072-0.432-0.122-0.644c-0.019-0.079-0.039-0.157-0.06-0.235
		c-0.06-0.221-0.13-0.437-0.21-0.649c-0.022-0.059-0.041-0.118-0.064-0.176c-0.111-0.274-0.233-0.542-0.374-0.799l0,0
		L317.027,147.35v-14.943h28.38v34.187c0,3.797,2.837,6.995,6.607,7.447c1.062,0.127,26.302,3.115,53.155,3.115
		s52.093-2.988,53.155-3.115c3.652-0.438,6.448-3.459,6.601-7.134C465.011,164.831,466.835,115.819,448.655,93.947z M408.47,345.705
		H145.127c-4.142,0-7.5,3.358-7.5,7.5s3.358,7.5,7.5,7.5h268.497v47.234H51.39v-47.234h65.014c4.142,0,7.5-3.358,7.5-7.5
		s-3.358-7.5-7.5-7.5h-59.86l105.523-192.836c0.604-1.104,0.92-2.342,0.92-3.6v-40.147h15.134v40.147c0,4.142,3.358,7.5,7.5,7.5
		h93.771c4.142,0,7.5-3.358,7.5-7.5v-40.147h15.134v40.147c0,1.258,0.316,2.497,0.92,3.6L408.47,345.705z M193.121,132.407h78.771
		v9.361h-78.771V132.407z M405.169,162.156c-17.951,0-35.55-1.428-44.762-2.316v-34.933c0-4.142-3.358-7.5-7.5-7.5h-35.88v-10.573
		c0-7.01-5.703-12.713-12.713-12.713h-19.708c-7.01,0-12.713,5.703-12.713,12.713v10.573h-78.771v-10.573
		c0-7.01-5.703-12.713-12.713-12.713H160.7c-7.01,0-12.713,5.703-12.713,12.713v10.573h-35.88c-4.142,0-7.5,3.358-7.5,7.5v34.933
		c-9.212,0.888-26.812,2.316-44.762,2.316c-18.013,0-35.671-1.438-44.858-2.325c0.132-15.601,2.527-43.807,12.907-56.295
		c9.112-10.961,38.636-22.943,78.976-32.051c39.963-9.023,86.931-14.409,125.637-14.409s85.673,5.387,125.637,14.409
		c40.34,9.108,69.864,21.09,78.976,32.051c10.355,12.458,12.761,40.684,12.902,56.295
		C440.834,160.719,423.178,162.156,405.169,162.156z"/>
	<path d="M232.507,170.463c-44.539,0-80.773,36.234-80.773,80.773s36.234,80.773,80.773,80.773s80.773-36.234,80.773-80.773
		S277.045,170.463,232.507,170.463z M232.507,317.009c-36.268,0-65.773-29.505-65.773-65.773s29.505-65.773,65.773-65.773
		s65.773,29.505,65.773,65.773S268.774,317.009,232.507,317.009z"/>
	<path d="M232.507,206.848c-4.411,0-8,3.589-8,8s3.589,8,8,8s8-3.589,8-8S236.918,206.848,232.507,206.848z"/>
	<path d="M204.99,226.112c-1.214-0.7-2.596-1.07-3.997-1.07c-2.854,0-5.51,1.536-6.928,3.999c-2.204,3.817-0.894,8.718,2.936,10.935
		c1.212,0.698,2.592,1.066,3.991,1.066c2.849,0,5.503-1.532,6.928-3.999c1.069-1.852,1.353-4.008,0.799-6.073
		C208.167,228.907,206.844,227.183,204.99,226.112z"/>
	<path d="M200.993,261.431c-1.398,0-2.778,0.369-4.006,1.076c-3.814,2.208-5.125,7.108-2.926,10.916
		c1.423,2.473,4.08,4.009,6.934,4.009c1.401,0,2.783-0.37,4-1.072c1.85-1.068,3.173-2.793,3.726-4.856
		c0.554-2.065,0.27-4.221-0.799-6.073C206.496,262.963,203.842,261.431,200.993,261.431z"/>
	<path d="M232.507,279.625c-4.411,0-8,3.589-8,8s3.589,8,8,8s8-3.589,8-8S236.918,279.625,232.507,279.625z"/>
	<path d="M268.012,262.497c-1.212-0.698-2.592-1.066-3.991-1.066c-2.849,0-5.503,1.532-6.928,3.999
		c-1.069,1.852-1.353,4.008-0.799,6.073c0.553,2.063,1.876,3.788,3.73,4.858c1.214,0.7,2.596,1.07,3.997,1.07
		c2.854,0,5.51-1.536,6.928-3.999C273.152,269.615,271.842,264.714,268.012,262.497z"/>
	<path d="M264.02,225.042c-1.401,0-2.783,0.37-4,1.072c-1.85,1.068-3.173,2.793-3.726,4.856c-0.554,2.065-0.27,4.221,0.799,6.073
		c1.425,2.467,4.079,3.999,6.928,3.999c1.398,0,2.778-0.369,4.006-1.076c3.814-2.208,5.125-7.108,2.926-10.916
		C269.53,226.578,266.873,225.042,264.02,225.042z"/>
</g>
<g>
</g>
<g>
</g>
<g>
</g>
<g>
</g>
<g>
</g>
<g>
</g>
<g>
</g>
<g>
</g>
<g>
</g>
<g>
</g>
<g>
</g>
<g>
</g>
<g>
</g>
<g>
</g>
<g>
</g>
</svg>
